# xmcd CD database file
#
# Track frame offsets:
#	150
#	27065
#	60242
#	100524
#	121154
#	153166
#	172510
#	206547
#	239637
#
# Disc length: 3750 seconds
#
# Revision: 0
# Processed by: cddbd v1.5.2PL0 Copyright (c) Steve Scherf et al.
# Submitted via: CDex 1.51
#
DISCID=5b0ea409
DTITLE=Berndt Luef - Sky Dance
DYEAR=2001
DGENRE=Jazz
TTITLE0=Epiphyt
TTITLE1=Sarajevo
TTITLE2=Wasserläufe-Part 1
TTITLE3=Wasserläufe-Part 2
TTITLE4=Wasserläufe-Part 3
TTITLE5=Running In The Rain
TTITLE6=Barcos Rabelos
TTITLE7=The Sylph
TTITLE8=Sky Dance
EXTD=YEAR: 2001
EXTT0=
EXTT1=
EXTT2=
EXTT3=
EXTT4=
EXTT5=
EXTT6=
EXTT7=
EXTT8=
PLAYORDER=
